<svg width="80" height="80" fill="none" xmlns="http://www.w3.org/2000/svg"><g clip-path="url(#clip0_1_117)"><path d="M52.083 48.734c-3.69 5.396-9.093 7.946-15.416 7.946-7.68 0-14.254-5.91-13.31-13.746 1.05-8.694 7.8-12.434 19.026-13.81 2.004-.244 2.834-.314 7.157-.634l.46-.033v-.717c0-5.986-3.56-10.073-8.333-10.073-4.79 0-8.134 2.49-10.184 8.42l-6.3-2.173C28.14 15.347 33.977 11 41.667 11c8.676 0 15 7.26 15 16.74 0 8.83.543 15.854 1.61 18.524 1.186 2.973 1.62 3.723 2.946 5.376l-5.2 4.17c-1.743-2.173-2.51-3.496-3.936-7.073v-.003h-.004zm18.774 19.75c-.904.666-2.474.27-1.764-1.467.884-2.16 1.824-4.693.874-5.84-.7-.85-1.557-1.273-3.424-1.273-1.533 0-2.3.2-3.316.266-.68.044-.977-.99-.304-1.466a9.867 9.867 0 012.9-1.427c3.834-1.147 8.35-.517 8.9.277 1.217 1.766-.663 8.563-3.866 10.933v-.003zm-3.94-3.614a25.184 25.184 0 01-2.767 2.317c-7.073 5.387-16.233 8.2-24.193 8.2-12.81 0-24.267-5.977-32.96-15.983-.744-.767-.127-1.887.743-1.28 9.367 6.923 20.96 11.11 32.963 11.11 7.55 0 15.694-1.79 23.45-5.644.54-.253 1.147-.6 1.677-.846 1.223-.7 2.3 1.02 1.087 2.126zM50.033 35.137c-4.193.313-4.986.377-6.84.603-8.506 1.044-12.656 3.344-13.216 7.994-.42 3.476 2.7 6.28 6.69 6.28 6.796 0 11.723-4.094 13.406-14.877h-.04z" fill="#C4C4C4"/></g><defs><clipPath id="clip0_1_117"><path fill="#fff" d="M0 0h80v80H0z"/></clipPath></defs></svg>