<svg width="80" height="80" fill="none" xmlns="http://www.w3.org/2000/svg"><g clip-path="url(#clip0_1_120)"><path d="M25 36.667a6.667 6.667 0 000-13.334H10v13.334h15zm3.333 6.666H10v13.334h18.333a6.667 6.667 0 100-13.334zm6.877-4.76a13.334 13.334 0 01-6.877 24.76h-25V16.667H25a13.333 13.333 0 0110.21 21.906zM51.667 20H70v5H51.667v-5zm25 28.333h-25v.834A9.167 9.167 0 0069 53.333h7.113A15.84 15.84 0 0145 49.167v-5a15.833 15.833 0 0131.667 0v4.166zm-7.014-6.666a9.17 9.17 0 00-17.64 0h17.64z" fill="#C4C4C4"/></g><defs><clipPath id="clip0_1_120"><path fill="#fff" d="M0 0h80v80H0z"/></clipPath></defs></svg>