<svg width="80" height="80" fill="none" xmlns="http://www.w3.org/2000/svg"><g clip-path="url(#clip0_1_123)"><path d="M40 36.667h28.443c.147 1.283.224 2.6.224 3.946 0 9.114-3.267 16.787-8.927 22-4.95 4.57-11.727 7.25-19.807 7.25A29.92 29.92 0 0110 39.933 29.919 29.919 0 0139.933 10C48 10 54.777 12.967 59.96 17.797l-4.873 4.87c-3.86-3.73-9.077-6-15.087-6a23.334 23.334 0 100 46.666c11.753 0 20.48-8.693 21.923-20H40v-6.666z" fill="#C4C4C4"/></g><defs><clipPath id="clip0_1_123"><path fill="#fff" d="M0 0h80v80H0z"/></clipPath></defs></svg>